<svg xmlns="http://www.w3.org/2000/svg" version="1.1" xmlns:xlink="http://www.w3.org/1999/xlink" xmlns:svgjs="http://svgjs.dev/svgjs" width="100%" height="100%" viewBox="0 0 1000 600"><rect width="1000" height="600" x="0" y="0" fill="#df678c"/><g><circle r="166.66666666666666" cx="380.094004313151" cy="402.3162268337371" fill="black" transform="matrix(0.5856795784022761,0,0,0.5856795784022761,0,64.37164526005957)"/><path d="M409.61239500234655 448.47418817367054L409.61239500234655 448.47418817367054L409.61239500234655 429.39951368898494Q409.61239500234655 420.03804223976334 406.3926981744351 416.1419385152318Q403.1730013465236 412.2458347907003 392.83750396616915 412.2458347907003L392.83750396616915 412.2458347907003L377.8483271370687 412.2458347907003Q373.95222341253714 412.2458347907003 373.95222341253714 405.4276532727701Q373.95222341253714 398.6094717548399 377.8483271370687 398.6094717548399L377.8483271370687 398.6094717548399L392.83750396616915 398.6094717548399Q409.9911828644538 398.6094717548399 417.5939963824632 405.61704720382374Q425.19680990047266 412.6516789286723 425.19680990047266 429.39951368898494L425.19680990047266 429.39951368898494L425.19680990047266 446.5261363114048Q425.19680990047266 462.70578927855655 412.6156416233396 470.0109837620532Q400.06152962207136 477.3161782455498 379.4175911372272 477.3161782455498L379.4175911372272 477.3161782455498Q334.9911861672218 477.3161782455498 334.9911861672218 446.5261363114048L334.9911861672218 446.5261363114048L334.9911861672218 358.1062267852309Q334.9911861672218 341.92657381807913 347.16651030638286 334.6213793345825Q359.3418344455439 327.3161848510859 379.2011409303088 327.3161848510859L379.2011409303088 327.3161848510859Q422.27473210707404 327.3161848510859 422.27473210707404 358.1062267852309L422.27473210707404 358.1062267852309L422.27473210707404 368.8205120276926Q422.27473210707404 373.284797545385 414.48252465801096 373.284797545385Q406.69031720894793 373.284797545385 406.69031720894793 368.8205120276926L406.69031720894793 368.8205120276926L406.69031720894793 356.15817492296515Q406.69031720894793 340.95254788694626 378.63295913714796 340.95254788694626Q350.575601065348 340.95254788694626 350.575601065348 356.15817492296515L350.575601065348 356.15817492296515L350.575601065348 448.47418817367054Q350.575601065348 463.6798152096894 380.09399803384724 463.6798152096894Q409.61239500234655 463.6798152096894 409.61239500234655 448.47418817367054Z " fill="white" transform="matrix(0.5856795784022761,0,0,0.5856795784022761,0,64.37164526005957)"/><path d="M685.782619868707 412.47087602711974L685.782619868707 412.47087602711974L644.4652564868295 412.47087602711974L644.4652564868295 471.37805896468774Q644.4652564868295 475.5197753423397 637.27962807259 475.5197753423397Q630.0939996583504 475.5197753423397 630.0939996583504 471.37805896468774L630.0939996583504 471.37805896468774L630.0939996583504 373.29922113004994Q630.0939996583504 356.60760512613933 636.556075211434 349.14752562663364Q643.0181507645175 341.687446127128 658.487211934061 341.687446127128L658.487211934061 341.687446127128L692.9682482829465 341.687446127128Q696.5610624900663 341.687446127128 696.5610624900663 347.9748709895876Q696.5610624900663 354.2622958520472 692.9682482829465 354.2622958520472L692.9682482829465 354.2622958520472L658.487211934061 354.2622958520472Q650.7526813492891 354.2622958520472 647.6089689180594 358.5786629203231Q644.4652564868295 362.89502998859894 644.4652564868295 373.29922113004994L644.4652564868295 373.29922113004994L644.4652564868295 399.89602630220054L685.782619868707 399.89602630220054Q689.3754340758268 399.89602630220054 689.3754340758268 406.18345116466014Q689.3754340758268 412.47087602711974 685.782619868707 412.47087602711974ZM763.5770274923144 474.62157179055976L763.5770274923144 474.62157179055976L742.5440943214674 474.62157179055976Q726.7506818693366 474.62157179055976 719.739704145721 468.15949623747633Q712.7287264221053 461.6974206843928 712.7287264221053 446.22835951484933L712.7287264221053 446.22835951484933L712.7287264221053 444.80620389119775Q712.7287264221053 429.53674351093866 719.016151284565 423.77327072035075Q725.3035761470246 418.0347480284233 741.4712400790636 416.4129916154873L741.4712400790636 416.4129916154873L772.5590630101138 413.3690795788997L772.5590630101138 393.433950749117Q772.5590630101138 379.41199530188567 748.107966322771 379.41199530188567L748.107966322771 379.41199530188567L723.5071690434647 379.41199530188567Q719.914354836345 379.41199530188567 719.914354836345 373.12457043942607Q719.914354836345 366.83714557696646 723.5071690434647 366.83714557696646L723.5071690434647 366.83714557696646L748.107966322771 366.83714557696646Q765.722735977122 366.83714557696646 776.3265279078576 373.57367221531604Q786.9303198385929 380.3101988536656 786.9303198385929 395.2303578526769L786.9303198385929 395.2303578526769L786.9303198385929 448.22436740769365Q786.9303198385929 459.9010135808329 791.0470861175844 466.7123905151642L791.0470861175844 466.7123905151642Q792.3195411492726 468.88304909863234 792.3195411492726 469.40700117050403L792.3195411492726 469.40700117050403Q792.3195411492726 471.57765975397217 788.9013776327768 473.99781932404596Q785.4832141162808 476.41797889411964 783.1379048421887 476.41797889411964L783.1379048421887 476.41797889411964Q779.1957892538212 476.41797889411964 775.8774261319675 468.95789939461406Q772.5590630101138 461.49781989510836 772.5590630101138 450.02077451125353L772.5590630101138 450.02077451125353L772.5590630101138 425.9439293038189L742.5440943214674 428.9878413404065Q732.8385059425119 430.06069558281035 729.9692445965482 433.30420840868237Q727.0999832505844 436.5477212345544 727.0999832505844 444.80620389119775L727.0999832505844 444.80620389119775L727.0999832505844 446.22835951484933Q727.0999832505844 454.861093651401 730.0690449911904 458.4539078585208Q733.0381067317962 462.04672206564055 742.5440943214674 462.04672206564055L742.5440943214674 462.04672206564055L763.5770274923144 462.04672206564055Q767.1698416994342 462.04672206564055 767.1698416994342 468.33414692810015Q767.1698416994342 474.62157179055976 763.5770274923144 474.62157179055976ZM881.5909941567348 471.57765975397217Q875.652870675523 477.3161824458996 861.4812146363283 477.3161824458996Q847.2846084984731 477.3161824458996 841.3464850172613 471.57765975397217Q835.43331163471 465.81418696338426 833.2626530512417 452.71538516659336L833.2626530512417 452.71538516659336L819.9642504651665 373.29922113004994Q819.4402983932948 369.5317562323063 819.4402983932948 369.18245485105854L819.4402983932948 369.18245485105854Q819.4402983932948 365.9389420251865 826.2516753276261 365.9389420251865Q833.0880023606179 365.9389420251865 833.8115552217739 370.0806584028385L833.8115552217739 370.0806584028385L847.2846084984731 450.71937727374905Q848.5321134315009 458.4539078585208 851.3265244814829 461.5976202897506Q854.0959854328044 464.7413327209804 861.4812146363283 464.7413327209804Q868.8414937411918 464.7413327209804 871.6109546925132 461.5976202897506Q874.4053657424954 458.4539078585208 875.652870675523 450.71937727374905L875.652870675523 450.71937727374905L889.1259239522221 370.0806584028385Q889.8494768133783 365.9389420251865 896.68580384637 365.9389420251865Q903.4971807807012 365.9389420251865 903.4971807807012 369.18245485105854L903.4971807807012 369.18245485105854Q903.4971807807012 369.5317562323063 902.9732287088298 373.29922113004994L902.9732287088298 373.29922113004994L889.6748261227544 452.71538516659336Q887.5291176379467 465.81418696338426 881.5909941567348 471.57765975397217ZM950.4033662625429 370.0806584028385L950.4033662625429 370.0806584028385L950.4033662625429 453.6135887183733Q950.4033662625429 459.3521114103007 953.0979769178828 464.2922309450904Q955.7925875732226 469.2323504798801 955.7925875732226 469.40700117050403L955.7925875732226 469.40700117050403Q955.7925875732226 471.57765975397217 952.3744240567266 473.99781932404596Q948.9562605402307 476.41797889411964 946.6109512661387 476.41797889411964L946.6109512661387 476.41797889411964Q942.843486368395 476.41797889411964 939.4253228518992 469.856102946394Q936.0321094340638 463.29422699866825 936.0321094340638 455.4099958219332L936.0321094340638 455.4099958219332L936.0321094340638 370.0806584028385Q936.0321094340638 365.9389420251865 943.2177378483033 365.9389420251865Q950.4033662625429 365.9389420251865 950.4033662625429 370.0806584028385ZM950.9273183344145 331.8072070575486L950.9273183344145 331.8072070575486L950.9273183344145 347.4259688190554Q950.9273183344145 351.91698657795513 943.117937453661 351.91698657795513Q935.3085565729077 351.91698657795513 935.3085565729077 347.4259688190554L935.3085565729077 347.4259688190554L935.3085565729077 331.8072070575486Q935.3085565729077 327.3161892986489 943.117937453661 327.3161892986489Q950.9273183344145 327.3161892986489 950.9273183344145 331.8072070575486ZM1002.4991722657796 390.7393400937772L1002.4991722657796 390.7393400937772L1002.4991722657796 450.71937727374905Q1002.4991722657796 464.7413327209804 1025.47821313215 464.7413327209804Q1048.4822040971808 464.7413327209804 1048.4822040971808 450.71937727374905L1048.4822040971808 450.71937727374905L1048.4822040971808 443.18444747826175Q1048.4822040971808 439.0427311006098 1055.6678325114203 439.0427311006098Q1062.8534609256599 439.0427311006098 1062.8534609256599 443.18444747826175L1062.8534609256599 443.18444747826175L1062.8534609256599 448.92297017018916Q1062.8534609256599 463.84312916920044 1052.6987707708145 470.57965580755Q1042.5440806159688 477.3161824458996 1025.5780135267921 477.3161824458996Q1008.5869963389548 477.3161824458996 998.3574558881277 470.57965580755Q988.1279154373005 463.84312916920044 988.1279154373005 448.92297017018916L988.1279154373005 448.92297017018916L988.1279154373005 392.53574719733706Q988.1279154373005 377.6155881983258 998.3574558881277 370.8790615599762Q1008.5869963389548 364.14253492162663 1025.5780135267921 364.14253492162663Q1042.5440806159688 364.14253492162663 1052.6987707708145 370.8790615599762Q1062.8534609256599 377.6155881983258 1062.8534609256599 392.53574719733706L1062.8534609256599 392.53574719733706L1062.8534609256599 398.2742698892645Q1062.8534609256599 402.4159862669165 1055.6678325114203 402.4159862669165Q1048.4822040971808 402.4159862669165 1048.4822040971808 398.2742698892645L1048.4822040971808 398.2742698892645L1048.4822040971808 390.7393400937772Q1048.4822040971808 376.71738464654584 1025.47821313215 376.71738464654584Q1002.4991722657796 376.71738464654584 1002.4991722657796 390.7393400937772ZM1158.5869894862055 450.71937727374905L1158.5869894862055 450.71937727374905L1158.5869894862055 390.7393400937772Q1158.5869894862055 376.71738464654584 1134.0859926015414 376.71738464654584Q1109.560045618217 376.71738464654584 1109.560045618217 390.7393400937772L1109.560045618217 390.7393400937772L1109.560045618217 450.71937727374905Q1109.560045618217 464.7413327209804 1134.0859926015414 464.7413327209804Q1158.5869894862055 464.7413327209804 1158.5869894862055 450.71937727374905ZM1172.9582463146849 392.53574719733706L1172.9582463146849 392.53574719733706L1172.9582463146849 448.92297017018916Q1172.9582463146849 463.84312916920044 1162.3794044826097 470.57965580755Q1151.7756125518742 477.3161824458996 1134.1608428975233 477.3161824458996Q1116.5710233418326 477.3161824458996 1105.867431016455 470.57965580755Q1095.1887887897378 463.84312916920044 1095.1887887897378 448.92297017018916L1095.1887887897378 448.92297017018916L1095.1887887897378 392.53574719733706Q1095.1887887897378 377.6155881983258 1105.7925807204733 370.8790615599762Q1116.3714225525482 364.14253492162663 1133.9861922068992 364.14253492162663Q1151.6009618612504 364.14253492162663 1162.2796040879675 370.8790615599762Q1172.9582463146849 377.6155881983258 1172.9582463146849 392.53574719733706ZM1288.4772031130499 392.53574719733706L1288.4772031130499 392.53574719733706L1288.4772031130499 471.37805896468774Q1288.4772031130499 475.5197753423397 1281.2915746988103 475.5197753423397Q1274.1059462845708 475.5197753423397 1274.1059462845708 471.37805896468774L1274.1059462845708 471.37805896468774L1274.1059462845708 390.7393400937772Q1274.1059462845708 376.71738464654584 1249.579999301246 376.71738464654584Q1225.0540523179216 376.71738464654584 1225.0540523179216 390.7393400937772L1225.0540523179216 390.7393400937772L1225.0540523179216 471.37805896468774Q1225.0540523179216 475.5197753423397 1217.868423903682 475.5197753423397Q1210.6827954894425 475.5197753423397 1210.6827954894425 471.37805896468774L1210.6827954894425 471.37805896468774L1210.6827954894425 392.53574719733706Q1210.6827954894425 377.6155881983258 1221.2865874201777 370.8790615599762Q1231.8903793509132 364.14253492162663 1249.5051490052645 364.14253492162663Q1267.094968560955 364.14253492162663 1277.7985608863326 370.8790615599762Q1288.4772031130499 377.6155881983258 1288.4772031130499 392.53574719733706ZM1333.936282872579 457.73035499736477L1333.936282872579 457.73035499736477L1333.936282872579 472.9998153776238Q1333.936282872579 477.3161824458996 1326.3015526824495 477.3161824458996Q1318.66682249232 477.3161824458996 1318.66682249232 472.9998153776238L1318.66682249232 472.9998153776238L1318.66682249232 457.73035499736477Q1318.66682249232 453.4139879290889 1326.3015526824495 453.4139879290889Q1333.936282872579 453.4139879290889 1333.936282872579 457.73035499736477ZM1378.472208981668 370.0806584028385L1378.472208981668 370.0806584028385L1378.472208981668 453.6135887183733Q1378.472208981668 459.3521114103007 1381.1668196370078 464.2922309450904Q1383.8614302923477 469.2323504798801 1383.8614302923477 469.40700117050403L1383.8614302923477 469.40700117050403Q1383.8614302923477 471.57765975397217 1380.443266775852 473.99781932404596Q1377.0500533580164 476.41797889411964 1374.7047440839244 476.41797889411964L1374.7047440839244 476.41797889411964Q1370.9372791861808 476.41797889411964 1367.5191156696849 469.856102946394Q1364.100952153189 463.29422699866825 1364.100952153189 455.4099958219332L1364.100952153189 455.4099958219332L1364.100952153189 370.0806584028385Q1364.100952153189 365.9389420251865 1371.2865805674285 365.9389420251865Q1378.472208981668 365.9389420251865 1378.472208981668 370.0806584028385ZM1379.0211111522 331.8072070575486L1379.0211111522 331.8072070575486L1379.0211111522 347.4259688190554Q1379.0211111522 351.91698657795513 1371.2117302714466 351.91698657795513Q1363.377399292033 351.91698657795513 1363.377399292033 347.4259688190554L1363.377399292033 347.4259688190554L1363.377399292033 331.8072070575486Q1363.377399292033 327.3161892986489 1371.2117302714466 327.3161892986489Q1379.0211111522 327.3161892986489 1379.0211111522 331.8072070575486ZM1479.6199089515542 450.71937727374905L1479.6199089515542 450.71937727374905L1479.6199089515542 390.7393400937772Q1479.6199089515542 376.71738464654584 1455.0939619682292 376.71738464654584Q1430.5680149849047 376.71738464654584 1430.5680149849047 390.7393400937772L1430.5680149849047 390.7393400937772L1430.5680149849047 450.71937727374905Q1430.5680149849047 464.7413327209804 1455.0939619682292 464.7413327209804Q1479.6199089515542 464.7413327209804 1479.6199089515542 450.71937727374905ZM1493.9911657800333 392.53574719733706L1493.9911657800333 392.53574719733706L1493.9911657800333 448.92297017018916Q1493.9911657800333 463.84312916920044 1483.3873738492978 470.57965580755Q1472.7835819185623 477.3161824458996 1455.1937623628717 477.3161824458996Q1437.5789927085204 477.3161824458996 1426.9003504818033 470.57965580755Q1416.1967581564256 463.84312916920044 1416.1967581564256 448.92297017018916L1416.1967581564256 448.92297017018916L1416.1967581564256 392.53574719733706Q1416.1967581564256 377.6155881983258 1426.8005500871611 370.8790615599762Q1437.4043420178966 364.14253492162663 1454.9941615735872 364.14253492162663Q1472.6089312279385 364.14253492162663 1483.2875734546553 370.8790615599762Q1493.9911657800333 377.6155881983258 1493.9911657800333 392.53574719733706Z " fill="#3d155f" transform="matrix(0.5856795784022761,0,0,0.5856795784022761,0,64.37164526005957)"/></g></svg>